STARTFONT 2.1
FONT -Cronyx-Helvetica-Medium-R-Normal--24-240-75-75-P-130-KOI8-C
SIZE 24 72 72
FONTBOUNDINGBOX 19 27 0 -6
STARTPROPERTIES 23
DEFAULT_CHAR 32
FONT_ASCENT 22
FONT_DESCENT 6
SPACING "P"
FONTNAME_REGISTRY ""
FOUNDRY "Cronyx"
FAMILY_NAME "Helvetica"
WEIGHT_NAME "Medium"
SLANT "R"
SETWIDTH_NAME "Normal"
ADD_STYLE_NAME ""
AVERAGE_WIDTH 130
CHARSET_REGISTRY "KOI8"
CHARSET_ENCODING "C"
PIXEL_SIZE 24
POINT_SIZE 240
RESOLUTION_X 75
RESOLUTION_Y 75
COPYRIGHT "Copyright (C) 1990, 1991 EWT Consulting, Portions Copyright (C) 1996-1997 by Andrey A. Chernov, Moscow, Russia."
_XMBDFED_INFO "Edited with xmbdfed 3.8."
_XFREE86_GLYPH_RANGES "3_10 26_27 30_255"
X_HEIGHT 13
CAP_HEIGHT 18
ENDPROPERTIES
CHARS 236
STARTCHAR multi
ENCODING 3
SWIDTH 416 0
DWIDTH 10 0
BBX 8 8 2 2
BITMAP
C3
E7
7E
3C
3C
7E
E7
C3
ENDCHAR
STARTCHAR divide
ENCODING 4
SWIDTH 500 0
DWIDTH 12 0
BBX 10 12 1 0
BITMAP
0C00
0C00
0C00
0000
0000
FFC0
FFC0
0000
0000
0C00
0C00
0C00
ENDCHAR
STARTCHAR promille
ENCODING 5
SWIDTH 791 0
DWIDTH 19 0
BBX 17 18 1 0
BITMAP
383000
7C2000
C66000
C64000
C6C000
C68000
7D8000
390000
030000
060000
05CE00
0FFF00
0E3180
1E3180
163180
363180
23FF00
61CE00
ENDCHAR
STARTCHAR approx
ENCODING 6
SWIDTH 833 0
DWIDTH 20 0
BBX 10 9 0 2
BITMAP
3040
7CC0
CF80
8300
0000
3040
7CC0
CF80
8300
ENDCHAR
STARTCHAR degree
ENCODING 7
SWIDTH 458 0
DWIDTH 11 0
BBX 9 18 1 -5
BITMAP
C180
C180
C180
C180
C180
C180
C180
C180
C180
C180
E380
FF80
FD80
C000
C000
C000
C000
C000
ENDCHAR
STARTCHAR plusminus
ENCODING 8
SWIDTH 375 0
DWIDTH 9 0
BBX 8 10 1 1
BITMAP
18
18
18
FF
FF
18
18
18
FF
FF
ENDCHAR
STARTCHAR pilcrow
ENCODING 9
SWIDTH 541 0
DWIDTH 13 0
BBX 11 18 1 0
BITMAP
1FE0
7FE0
7F60
FF60
FF60
FF60
FF60
FF60
7F60
7F60
1F60
0360
0360
0360
0360
0360
0360
0360
ENDCHAR
STARTCHAR ddagger
ENCODING 10
SWIDTH 500 0
DWIDTH 12 0
BBX 10 18 1 0
BITMAP
0C00
0C00
0C00
0C00
FFC0
FFC0
0C00
0C00
0C00
0C00
0C00
0C00
FFC0
FFC0
0C00
0C00
0C00
0C00
ENDCHAR
STARTCHAR lessequal
ENCODING 26
SWIDTH 500 0
DWIDTH 12 0
BBX 10 13 1 0
BITMAP
0040
01C0
0780
1E00
7800
E000
E000
7800
1E00
0780
01C0
FFC0
FFC0
ENDCHAR
STARTCHAR greaterequal
ENCODING 27
SWIDTH 500 0
DWIDTH 12 0
BBX 10 13 1 0
BITMAP
8000
E000
7800
1E00
0780
01C0
01C0
0780
1E00
7800
E000
FFC0
FFC0
ENDCHAR
STARTCHAR currency
ENCODING 30
SWIDTH 416 0
DWIDTH 10 0
BBX 10 13 0 0
BITMAP
C0C0
6D80
3F00
3300
6180
6180
6180
6180
3300
3F00
6D80
6180
C0C0
ENDCHAR
STARTCHAR twosuperior
ENCODING 31
SWIDTH 291 0
DWIDTH 7 0
BBX 5 10 1 8
BITMAP
70
D8
98
18
30
60
40
C0
F8
F8
ENDCHAR
STARTCHAR space
ENCODING 32
SWIDTH 208 0
DWIDTH 5 0
BBX 0 0 0 0
BITMAP
ENDCHAR
STARTCHAR exclam
ENCODING 33
SWIDTH 166 0
DWIDTH 4 0
BBX 2 18 1 0
BITMAP
C0
C0
C0
C0
C0
C0
C0
C0
C0
C0
C0
C0
C0
00
00
C0
C0
C0
ENDCHAR
STARTCHAR quotedbl
ENCODING 34
SWIDTH 333 0
DWIDTH 8 0
BBX 6 7 1 11
BITMAP
CC
CC
CC
CC
CC
CC
CC
ENDCHAR
STARTCHAR numbersign
ENCODING 35
SWIDTH 625 0
DWIDTH 15 0
BBX 13 18 1 0
BITMAP
0330
0330
0220
0660
0660
0440
7FF8
0CC0
0880
1980
FFF0
1980
1100
3300
3300
2200
6600
6600
ENDCHAR
STARTCHAR dollar
ENCODING 36
SWIDTH 458 0
DWIDTH 11 0
BBX 9 20 1 -2
BITMAP
0800
1C00
6B00
6B00
C980
C980
C800
6800
7800
1C00
0F00
0B00
C980
C980
C980
6B00
6B00
1C00
0800
0800
ENDCHAR
STARTCHAR percent
ENCODING 37
SWIDTH 708 0
DWIDTH 17 0
BBX 15 18 1 0
BITMAP
3818
7C10
C630
C620
C660
C640
7CC0
3880
0180
0300
0238
067C
04C6
0CC6
08C6
18C6
107C
3038
ENDCHAR
STARTCHAR ampersand
ENCODING 38
SWIDTH 583 0
DWIDTH 14 0
BBX 13 18 1 0
BITMAP
0E00
1F00
3180
3180
3180
1980
1B00
0E00
1E00
3A30
6330
6120
C1E0
C0C0
C0C0
63E0
7F30
3C18
ENDCHAR
STARTCHAR quotesingle
ENCODING 39
SWIDTH 166 0
DWIDTH 4 0
BBX 2 7 1 11
BITMAP
C0
C0
C0
C0
C0
C0
C0
ENDCHAR
STARTCHAR parenleft
ENCODING 40
SWIDTH 291 0
DWIDTH 7 0
BBX 5 23 1 -5
BITMAP
18
18
30
30
60
60
60
C0
C0
C0
C0
C0
C0
C0
C0
C0
60
60
60
30
30
18
18
ENDCHAR
STARTCHAR parenright
ENCODING 41
SWIDTH 291 0
DWIDTH 7 0
BBX 5 23 1 -5
BITMAP
C0
C0
60
60
30
30
30
18
18
18
18
18
18
18
18
18
30
30
30
60
60
C0
C0
ENDCHAR
STARTCHAR asterisk
ENCODING 42
SWIDTH 416 0
DWIDTH 10 0
BBX 8 8 1 10
BITMAP
18
18
DB
7E
3C
3C
66
42
ENDCHAR
STARTCHAR plus
ENCODING 43
SWIDTH 500 0
DWIDTH 12 0
BBX 10 12 1 0
BITMAP
0C00
0C00
0C00
0C00
0C00
FFC0
FFC0
0C00
0C00
0C00
0C00
0C00
ENDCHAR
STARTCHAR comma
ENCODING 44
SWIDTH 208 0
DWIDTH 5 0
BBX 2 7 2 -4
BITMAP
C0
C0
C0
40
40
C0
80
ENDCHAR
STARTCHAR hyphen
ENCODING 45
SWIDTH 291 0
DWIDTH 7 0
BBX 6 2 1 5
BITMAP
FC
FC
ENDCHAR
STARTCHAR period
ENCODING 46
SWIDTH 208 0
DWIDTH 5 0
BBX 2 3 2 0
BITMAP
C0
C0
C0
ENDCHAR
STARTCHAR slash
ENCODING 47
SWIDTH 250 0
DWIDTH 6 0
BBX 6 21 0 -3
BITMAP
04
04
0C
0C
0C
18
18
18
10
30
30
30
20
60
60
60
C0
C0
C0
80
80
ENDCHAR
STARTCHAR zero
ENCODING 48
SWIDTH 458 0
DWIDTH 11 0
BBX 9 18 1 0
BITMAP
1C00
3E00
6300
6300
C180
C180
C180
C180
C180
C180
C180
C180
C180
C180
6300
6300
3E00
1C00
ENDCHAR
STARTCHAR one
ENCODING 49
SWIDTH 458 0
DWIDTH 11 0
BBX 5 18 2 0
BITMAP
18
18
38
F8
F8
18
18
18
18
18
18
18
18
18
18
18
18
18
ENDCHAR
STARTCHAR two
ENCODING 50
SWIDTH 458 0
DWIDTH 11 0
BBX 9 18 1 0
BITMAP
1C00
7F00
6300
C180
C180
C180
0180
0300
0300
0E00
0C00
3800
3000
6000
E000
C000
FF80
FF80
ENDCHAR
STARTCHAR three
ENCODING 51
SWIDTH 458 0
DWIDTH 11 0
BBX 9 18 1 0
BITMAP
1C00
7F00
6300
C180
C180
0180
0180
0380
1F00
1F00
0380
0180
C180
C180
C180
6300
7F00
1C00
ENDCHAR
STARTCHAR four
ENCODING 52
SWIDTH 458 0
DWIDTH 11 0
BBX 10 18 1 0
BITMAP
0300
0700
0700
0F00
1F00
1B00
3300
7300
6300
C300
C300
FFC0
FFC0
0300
0300
0300
0300
0300
ENDCHAR
STARTCHAR five
ENCODING 53
SWIDTH 458 0
DWIDTH 11 0
BBX 9 18 1 0
BITMAP
FF80
FF80
C000
C000
C000
C000
DC00
FF00
E300
C180
0180
0180
0180
C180
C180
6300
7F00
1C00
ENDCHAR
STARTCHAR six
ENCODING 54
SWIDTH 458 0
DWIDTH 11 0
BBX 9 18 1 0
BITMAP
1C00
3E00
6300
6300
C180
C000
C000
DC00
FF00
E300
C180
C180
C180
C180
6180
6300
3F00
1C00
ENDCHAR
STARTCHAR seven
ENCODING 55
SWIDTH 458 0
DWIDTH 11 0
BBX 9 18 1 0
BITMAP
FF80
FF80
0300
0300
0600
0600
0C00
0C00
0C00
1800
1800
1800
3000
3000
3000
6000
6000
6000
ENDCHAR
STARTCHAR eight
ENCODING 56
SWIDTH 458 0
DWIDTH 11 0
BBX 9 18 1 0
BITMAP
1C00
7F00
6300
C180
C180
C180
6300
6300
3E00
7F00
6300
C180
C180
C180
C180
6300
7F00
1C00
ENDCHAR
STARTCHAR nine
ENCODING 57
SWIDTH 458 0
DWIDTH 11 0
BBX 9 18 1 0
BITMAP
1C00
7E00
6300
C300
C180
C180
C180
C180
6380
7F80
1D80
0180
0180
C180
6300
6300
3E00
1C00
ENDCHAR
STARTCHAR colon
ENCODING 58
SWIDTH 250 0
DWIDTH 6 0
BBX 2 13 2 0
BITMAP
C0
C0
C0
00
00
00
00
00
00
00
C0
C0
C0
ENDCHAR
STARTCHAR semicolon
ENCODING 59
SWIDTH 250 0
DWIDTH 6 0
BBX 2 17 2 -4
BITMAP
C0
C0
C0
00
00
00
00
00
00
00
C0
C0
C0
40
40
C0
80
ENDCHAR
STARTCHAR less
ENCODING 60
SWIDTH 500 0
DWIDTH 12 0
BBX 10 12 1 0
BITMAP
0040
01C0
0780
1E00
7800
E000
E000
7800
1E00
0780
01C0
0040
ENDCHAR
STARTCHAR equal
ENCODING 61
SWIDTH 500 0
DWIDTH 12 0
BBX 10 6 1 3
BITMAP
FFC0
FFC0
0000
0000
FFC0
FFC0
ENDCHAR
STARTCHAR greater
ENCODING 62
SWIDTH 500 0
DWIDTH 12 0
BBX 10 12 1 0
BITMAP
8000
E000
7800
1E00
0780
01C0
01C0
0780
1E00
7800
E000
8000
ENDCHAR
STARTCHAR question
ENCODING 63
SWIDTH 416 0
DWIDTH 10 0
BBX 8 18 1 0
BITMAP
18
7E
66
C3
C3
C3
06
06
0C
0C
18
18
18
00
00
18
18
18
ENDCHAR
STARTCHAR at
ENCODING 64
SWIDTH 833 0
DWIDTH 20 0
BBX 17 20 2 -2
BITMAP
03F000
0E1C00
180600
300300
200100
61D980
437980
C61980
C61980
CC1980
CC3180
CC3180
CC3100
CEF300
C7DE00
600000
600200
300600
1C1C00
07F000
ENDCHAR
STARTCHAR A
ENCODING 65
SWIDTH 541 0
DWIDTH 13 0
BBX 13 18 0 0
BITMAP
0700
0700
0500
0D80
0D80
0880
18C0
18C0
18C0
3060
3FE0
3FE0
6030
6030
6030
C018
C018
C018
ENDCHAR
STARTCHAR B
ENCODING 66
SWIDTH 541 0
DWIDTH 13 0
BBX 11 18 1 0
BITMAP
FE00
FF80
C180
C0C0
C0C0
C0C0
C0C0
C180
FF80
FFC0
C0C0
C060
C060
C060
C060
C0C0
FFC0
FF00
ENDCHAR
STARTCHAR C
ENCODING 67
SWIDTH 583 0
DWIDTH 14 0
BBX 12 18 1 0
BITMAP
0F80
3FE0
38E0
6030
6030
E000
C000
C000
C000
C000
C000
C000
E030
6030
6030
38E0
3FE0
0F80
ENDCHAR
STARTCHAR D
ENCODING 68
SWIDTH 583 0
DWIDTH 14 0
BBX 12 18 1 0
BITMAP
FF00
FFC0
C0E0
C060
C070
C030
C030
C030
C030
C030
C030
C030
C030
C070
C060
C0E0
FFC0
FF00
ENDCHAR
STARTCHAR E
ENCODING 69
SWIDTH 541 0
DWIDTH 13 0
BBX 11 18 1 0
BITMAP
FFE0
FFE0
C000
C000
C000
C000
C000
C000
FFC0
FFC0
C000
C000
C000
C000
C000
C000
FFE0
FFE0
ENDCHAR
STARTCHAR F
ENCODING 70
SWIDTH 500 0
DWIDTH 12 0
BBX 10 18 1 0
BITMAP
FFC0
FFC0
C000
C000
C000
C000
C000
C000
FF80
FF80
C000
C000
C000
C000
C000
C000
C000
C000
ENDCHAR
STARTCHAR G
ENCODING 71
SWIDTH 625 0
DWIDTH 15 0
BBX 13 18 1 0
BITMAP
0FC0
3FF0
3870
6018
6018
E000
C000
C000
C000
C1F8
C1F8
C018
E018
6018
6038
3878
3FD8
0F88
ENDCHAR
STARTCHAR H
ENCODING 72
SWIDTH 541 0
DWIDTH 13 0
BBX 11 18 1 0
BITMAP
C060
C060
C060
C060
C060
C060
C060
C060
FFE0
FFE0
C060
C060
C060
C060
C060
C060
C060
C060
ENDCHAR
STARTCHAR I
ENCODING 73
SWIDTH 166 0
DWIDTH 4 0
BBX 2 18 1 0
BITMAP
C0
C0
C0
C0
C0
C0
C0
C0
C0
C0
C0
C0
C0
C0
C0
C0
C0
C0
ENDCHAR
STARTCHAR J
ENCODING 74
SWIDTH 458 0
DWIDTH 11 0
BBX 9 18 1 0
BITMAP
0180
0180
0180
0180
0180
0180
0180
0180
0180
0180
0180
0180
C180
C180
C180
6300
7F00
3C00
ENDCHAR
STARTCHAR K
ENCODING 75
SWIDTH 541 0
DWIDTH 13 0
BBX 12 18 1 0
BITMAP
C030
C060
C0C0
C180
C300
C600
CC00
DC00
F600
E600
C300
C300
C180
C080
C0C0
C060
C060
C030
ENDCHAR
STARTCHAR L
ENCODING 76
SWIDTH 458 0
DWIDTH 11 0
BBX 10 18 1 0
BITMAP
C000
C000
C000
C000
C000
C000
C000
C000
C000
C000
C000
C000
C000
C000
C000
C000
FFC0
FFC0
ENDCHAR
STARTCHAR M
ENCODING 77
SWIDTH 708 0
DWIDTH 17 0
BBX 15 18 1 0
BITMAP
C006
E00E
E00E
F01E
D016
D836
D836
C826
CC66
CC66
C446
C6C6
C6C6
C286
C386
C386
C106
C106
ENDCHAR
STARTCHAR N
ENCODING 78
SWIDTH 583 0
DWIDTH 14 0
BBX 12 18 1 0
BITMAP
C030
C030
E030
F030
D030
D830
C830
CC30
C630
C630
C330
C130
C1B0
C0B0
C0F0
C070
C030
C030
ENDCHAR
STARTCHAR O
ENCODING 79
SWIDTH 666 0
DWIDTH 16 0
BBX 14 18 1 0
BITMAP
0FC0
3FF0
3870
6018
6018
E01C
C00C
C00C
C00C
C00C
C00C
C00C
E01C
6018
6018
3870
3FF0
0FC0
ENDCHAR
STARTCHAR P
ENCODING 80
SWIDTH 541 0
DWIDTH 13 0
BBX 11 18 1 0
BITMAP
FF00
FFC0
C0C0
C060
C060
C060
C060
C060
C0C0
FFC0
FF00
C000
C000
C000
C000
C000
C000
C000
ENDCHAR
STARTCHAR Q
ENCODING 81
SWIDTH 666 0
DWIDTH 16 0
BBX 14 19 1 -1
BITMAP
0FC0
3FF0
3870
6018
6018
E01C
C00C
C00C
C00C
C00C
C00C
C00C
E19C
60D8
6078
3830
3FF8
0FCC
0004
ENDCHAR
STARTCHAR R
ENCODING 82
SWIDTH 541 0
DWIDTH 13 0
BBX 12 18 1 0
BITMAP
FF00
FFC0
C0C0
C060
C060
C060
C060
C0C0
FF80
FFC0
C0C0
C0E0
C060
C060
C060
C060
C060
C030
ENDCHAR
STARTCHAR S
ENCODING 83
SWIDTH 541 0
DWIDTH 13 0
BBX 11 18 1 0
BITMAP
1F00
7FC0
60C0
C060
C060
C000
6000
7C00
1F00
03C0
00C0
0060
C060
C060
C060
60C0
7FC0
1F00
ENDCHAR
STARTCHAR T
ENCODING 84
SWIDTH 500 0
DWIDTH 12 0
BBX 10 18 1 0
BITMAP
FFC0
FFC0
0C00
0C00
0C00
0C00
0C00
0C00
0C00
0C00
0C00
0C00
0C00
0C00
0C00
0C00
0C00
0C00
ENDCHAR
STARTCHAR U
ENCODING 85
SWIDTH 583 0
DWIDTH 14 0
BBX 12 18 1 0
BITMAP
C030
C030
C030
C030
C030
C030
C030
C030
C030
C030
C030
C030
C030
C030
C030
6060
7FE0
1F80
ENDCHAR
STARTCHAR V
ENCODING 86
SWIDTH 500 0
DWIDTH 12 0
BBX 12 18 0 0
BITMAP
C030
C030
C030
6060
6060
6060
6060
30C0
30C0
30C0
1980
1980
1980
1980
0F00
0F00
0600
0600
ENDCHAR
STARTCHAR W
ENCODING 87
SWIDTH 750 0
DWIDTH 18 0
BBX 18 18 0 0
BITMAP
C0C0C0
C0C0C0
C0C0C0
40C080
61E180
61E180
612180
233100
333300
333300
333300
133200
1B3600
1A1600
1E1E00
0E1C00
0C0C00
0C0C00
ENDCHAR
STARTCHAR X
ENCODING 88
SWIDTH 500 0
DWIDTH 12 0
BBX 12 18 0 0
BITMAP
C030
6060
6060
30C0
30C0
1980
1980
0F00
0600
0F00
0F00
1980
1980
30C0
30C0
6060
6060
C030
ENDCHAR
STARTCHAR Y
ENCODING 89
SWIDTH 583 0
DWIDTH 14 0
BBX 14 18 0 0
BITMAP
E01C
6018
3030
3030
1860
1860
0CC0
0CC0
0780
0780
0300
0300
0300
0300
0300
0300
0300
0300
ENDCHAR
STARTCHAR Z
ENCODING 90
SWIDTH 500 0
DWIDTH 12 0
BBX 11 18 1 0
BITMAP
FFE0
FFE0
0060
00C0
0180
0180
0300
0600
0600
0C00
0C00
1800
3000
3000
6000
C000
FFE0
FFE0
ENDCHAR
STARTCHAR bracketleft
ENCODING 91
SWIDTH 291 0
DWIDTH 7 0
BBX 4 23 2 -5
BITMAP
F0
F0
C0
C0
C0
C0
C0
C0
C0
C0
C0
C0
C0
C0
C0
C0
C0
C0
C0
C0
C0
F0
F0
ENDCHAR
STARTCHAR backslash
ENCODING 92
SWIDTH 250 0
DWIDTH 6 0
BBX 6 21 0 -3
BITMAP
80
80
C0
C0
C0
60
60
60
20
30
30
30
10
18
18
18
0C
0C
0C
04
04
ENDCHAR
STARTCHAR bracketright
ENCODING 93
SWIDTH 291 0
DWIDTH 7 0
BBX 4 23 1 -5
BITMAP
F0
F0
30
30
30
30
30
30
30
30
30
30
30
30
30
30
30
30
30
30
30
F0
F0
ENDCHAR
STARTCHAR asciicircum
ENCODING 94
SWIDTH 833 0
DWIDTH 20 0
BBX 12 7 4 10
BITMAP
0600
0F00
1980
1080
2040
6060
C030
ENDCHAR
STARTCHAR underscore
ENCODING 95
SWIDTH 458 0
DWIDTH 11 0
BBX 11 2 0 -6
BITMAP
FFE0
FFE0
ENDCHAR
STARTCHAR grave
ENCODING 96
SWIDTH 416 0
DWIDTH 10 0
BBX 4 3 3 14
BITMAP
E0
60
30
ENDCHAR
STARTCHAR a
ENCODING 97
SWIDTH 458 0
DWIDTH 11 0
BBX 10 13 1 0
BITMAP
1E00
3F00
6180
6180
0180
1F80
7D80
E180
C180
C180
C380
7FC0
38C0
ENDCHAR
STARTCHAR b
ENCODING 98
SWIDTH 500 0
DWIDTH 12 0
BBX 10 18 1 0
BITMAP
C000
C000
C000
C000
C000
DE00
FF00
E180
C1C0
C0C0
C0C0
C0C0
C0C0
C0C0
C1C0
E180
FF00
DE00
ENDCHAR
STARTCHAR c
ENCODING 99
SWIDTH 458 0
DWIDTH 11 0
BBX 9 13 1 0
BITMAP
1E00
3F00
6180
E180
C080
C000
C000
C000
C080
E180
6180
3F00
1E00
ENDCHAR
STARTCHAR d
ENCODING 100
SWIDTH 500 0
DWIDTH 12 0
BBX 10 18 1 0
BITMAP
00C0
00C0
00C0
00C0
00C0
1EC0
3FC0
61C0
E0C0
C0C0
C0C0
C0C0
C0C0
C0C0
E0C0
61C0
3FC0
1EC0
ENDCHAR
STARTCHAR e
ENCODING 101
SWIDTH 500 0
DWIDTH 12 0
BBX 10 13 1 0
BITMAP
1E00
3F80
6180
E0C0
C0C0
FFC0
FFC0
C000
C000
E040
60C0
3F80
1F00
ENDCHAR
STARTCHAR f
ENCODING 102
SWIDTH 208 0
DWIDTH 5 0
BBX 5 18 0 0
BITMAP
38
78
60
60
60
F0
F0
60
60
60
60
60
60
60
60
60
60
60
ENDCHAR
STARTCHAR g
ENCODING 103
SWIDTH 500 0
DWIDTH 12 0
BBX 10 18 1 -5
BITMAP
1EC0
3FC0
61C0
E0C0
C0C0
C0C0
C0C0
C0C0
C0C0
E0C0
61C0
3FC0
1EC0
00C0
C0C0
6180
7F80
1E00
ENDCHAR
STARTCHAR h
ENCODING 104
SWIDTH 458 0
DWIDTH 11 0
BBX 9 18 1 0
BITMAP
C000
C000
C000
C000
C000
DE00
FF00
E380
C180
C180
C180
C180
C180
C180
C180
C180
C180
C180
ENDCHAR
STARTCHAR i
ENCODING 105
SWIDTH 166 0
DWIDTH 4 0
BBX 2 18 1 0
BITMAP
C0
C0
C0
00
00
C0
C0
C0
C0
C0
C0
C0
C0
C0
C0
C0
C0
C0
ENDCHAR
STARTCHAR j
ENCODING 106
SWIDTH 166 0
DWIDTH 4 0
BBX 3 23 0 -5
BITMAP
60
60
60
00
00
60
60
60
60
60
60
60
60
60
60
60
60
60
60
60
60
E0
C0
ENDCHAR
STARTCHAR k
ENCODING 107
SWIDTH 416 0
DWIDTH 10 0
BBX 9 18 1 0
BITMAP
C000
C000
C000
C000
C000
C180
C300
C600
CC00
D800
FC00
EC00
C600
C600
C300
C300
C180
C180
ENDCHAR
STARTCHAR l
ENCODING 108
SWIDTH 166 0
DWIDTH 4 0
BBX 2 18 1 0
BITMAP
C0
C0
C0
C0
C0
C0
C0
C0
C0
C0
C0
C0
C0
C0
C0
C0
C0
C0
ENDCHAR
STARTCHAR m
ENCODING 109
SWIDTH 666 0
DWIDTH 16 0
BBX 14 13 1 0
BITMAP
DC70
FEF8
E79C
C30C
C30C
C30C
C30C
C30C
C30C
C30C
C30C
C30C
C30C
ENDCHAR
STARTCHAR n
ENCODING 110
SWIDTH 458 0
DWIDTH 11 0
BBX 9 13 1 0
BITMAP
DE00
FF00
E380
C180
C180
C180
C180
C180
C180
C180
C180
C180
C180
ENDCHAR
STARTCHAR o
ENCODING 111
SWIDTH 500 0
DWIDTH 12 0
BBX 10 13 1 0
BITMAP
1E00
3F00
6180
E1C0
C0C0
C0C0
C0C0
C0C0
C0C0
E1C0
6180
3F00
1E00
ENDCHAR
STARTCHAR p
ENCODING 112
SWIDTH 500 0
DWIDTH 12 0
BBX 10 18 1 -5
BITMAP
DE00
FF00
E180
C1C0
C0C0
C0C0
C0C0
C0C0
C0C0
C1C0
E180
FF00
DE00
C000
C000
C000
C000
C000
ENDCHAR
STARTCHAR q
ENCODING 113
SWIDTH 500 0
DWIDTH 12 0
BBX 10 18 1 -5
BITMAP
1EC0
3FC0
61C0
E0C0
C0C0
C0C0
C0C0
C0C0
C0C0
E0C0
61C0
3FC0
1EC0
00C0
00C0
00C0
00C0
00C0
ENDCHAR
STARTCHAR r
ENCODING 114
SWIDTH 291 0
DWIDTH 7 0
BBX 6 13 1 0
BITMAP
DC
FC
E0
C0
C0
C0
C0
C0
C0
C0
C0
C0
C0
ENDCHAR
STARTCHAR s
ENCODING 115
SWIDTH 416 0
DWIDTH 10 0
BBX 8 13 1 0
BITMAP
3C
7E
E3
C3
C0
70
7E
0E
03
C3
C7
7E
3C
ENDCHAR
STARTCHAR t
ENCODING 116
SWIDTH 208 0
DWIDTH 5 0
BBX 5 17 0 0
BITMAP
60
60
60
60
F0
F0
60
60
60
60
60
60
60
60
60
78
38
ENDCHAR
STARTCHAR u
ENCODING 117
SWIDTH 458 0
DWIDTH 11 0
BBX 9 13 1 0
BITMAP
C180
C180
C180
C180
C180
C180
C180
C180
C180
C180
E380
7F80
3D80
ENDCHAR
STARTCHAR v
ENCODING 118
SWIDTH 416 0
DWIDTH 10 0
BBX 10 13 0 0
BITMAP
C0C0
C0C0
C0C0
6180
6180
6180
3300
3300
3300
1E00
1E00
0C00
0C00
ENDCHAR
STARTCHAR w
ENCODING 119
SWIDTH 625 0
DWIDTH 15 0
BBX 15 13 0 0
BITMAP
C106
C386
C386
628C
66CC
66CC
66CC
2448
3C78
3C78
1830
1830
1830
ENDCHAR
STARTCHAR x
ENCODING 120
SWIDTH 416 0
DWIDTH 10 0
BBX 10 13 0 0
BITMAP
E1C0
6180
3300
3300
1E00
0C00
0C00
1E00
1E00
3300
6180
6180
C0C0
ENDCHAR
STARTCHAR y
ENCODING 121
SWIDTH 416 0
DWIDTH 10 0
BBX 10 18 0 -5
BITMAP
C0C0
C0C0
6180
6180
6180
3300
3300
3300
1200
1E00
1E00
0E00
0C00
0C00
0C00
1800
7800
7000
ENDCHAR
STARTCHAR z
ENCODING 122
SWIDTH 458 0
DWIDTH 11 0
BBX 9 13 1 0
BITMAP
FF80
FF80
0300
0600
0E00
0C00
1800
3800
3000
6000
C000
FF80
FF80
ENDCHAR
STARTCHAR braceleft
ENCODING 123
SWIDTH 291 0
DWIDTH 7 0
BBX 5 24 1 -6
BITMAP
18
38
60
60
60
60
60
60
60
60
60
C0
C0
60
60
60
60
60
60
60
60
60
38
18
ENDCHAR
STARTCHAR bar
ENCODING 124
SWIDTH 166 0
DWIDTH 4 0
BBX 2 24 1 -6
BITMAP
C0
C0
C0
C0
C0
C0
C0
C0
C0
C0
C0
C0
C0
C0
C0
C0
C0
C0
C0
C0
C0
C0
C0
C0
ENDCHAR
STARTCHAR braceright
ENCODING 125
SWIDTH 291 0
DWIDTH 7 0
BBX 5 24 1 -6
BITMAP
C0
E0
30
30
30
30
30
30
30
30
30
18
18
30
30
30
30
30
30
30
30
30
E0
C0
ENDCHAR
STARTCHAR asciitilde
ENCODING 126
SWIDTH 416 0
DWIDTH 10 0
BBX 10 4 0 14
BITMAP
3040
7CC0
CF80
8300
ENDCHAR
STARTCHAR not
ENCODING 127
SWIDTH 291 0
DWIDTH 7 0
BBX 6 4 1 3
BITMAP
FC
FC
0C
0C
ENDCHAR
STARTCHAR afii10051
ENCODING 128
SWIDTH 500 0
DWIDTH 12 0
BBX 11 18 1 0
BITMAP
FF00
FF00
3000
3000
3000
3780
3FC0
38E0
3060
3060
3060
3060
3060
3060
3260
3360
33E0
31C0
ENDCHAR
STARTCHAR afii10052
ENCODING 129
SWIDTH 416 0
DWIDTH 10 0
BBX 8 21 1 0
BITMAP
0E
0C
18
FF
FF
C0
C0
C0
C0
C0
C0
C0
C0
C0
C0
C0
C0
C0
C0
C0
C0
ENDCHAR
STARTCHAR cedilla
ENCODING 130
SWIDTH 291 0
DWIDTH 7 0
BBX 5 7 2 -4
BITMAP
80
C0
F0
38
78
F0
80
ENDCHAR
STARTCHAR afii10100
ENCODING 131
SWIDTH 416 0
DWIDTH 10 0
BBX 8 17 1 0
BITMAP
0E
0C
18
00
FF
FF
C0
C0
C0
C0
C0
C0
C0
C0
C0
C0
C0
ENDCHAR
STARTCHAR quotedblbase
ENCODING 132
SWIDTH 291 0
DWIDTH 7 0
BBX 7 7 0 -3
BITMAP
EE
EE
EE
66
66
66
66
ENDCHAR
STARTCHAR ellipsis
ENCODING 133
SWIDTH 541 0
DWIDTH 13 0
BBX 10 3 2 0
BITMAP
CCC0
CCC0
CCC0
ENDCHAR
STARTCHAR dagger
ENCODING 134
SWIDTH 500 0
DWIDTH 12 0
BBX 10 18 1 0
BITMAP
0C00
0C00
0C00
0C00
0C00
FFC0
FFC0
0C00
0C00
0C00
0C00
0C00
0C00
0C00
0C00
0C00
0C00
0C00
ENDCHAR
STARTCHAR section
ENCODING 135
SWIDTH 291 0
DWIDTH 7 0
BBX 6 17 1 0
BITMAP
38
7C
C4
C0
C0
70
78
CC
CC
CC
78
38
0C
0C
8C
F8
70
ENDCHAR
STARTCHAR Euro
ENCODING 136
SWIDTH 541 0
DWIDTH 13 0
BBX 13 18 0 0
BITMAP
07C0
1FF0
1C70
3018
3018
7000
FF00
FF00
6000
6000
FF00
FF00
7018
3018
3018
1C70
1FF0
07C0
ENDCHAR
STARTCHAR dieresis
ENCODING 137
SWIDTH 333 0
DWIDTH 8 0
BBX 6 3 1 15
BITMAP
CC
CC
CC
ENDCHAR
STARTCHAR afii10058
ENCODING 138
SWIDTH 666 0
DWIDTH 16 0
BBX 15 18 1 0
BITMAP
1FC0
1FC0
18C0
18C0
18C0
18C0
18C0
18C0
18FC
18FE
18C6
18C6
18C6
18C6
18C6
30C6
F0FE
E0FC
ENDCHAR
STARTCHAR guilsinglleft
ENCODING 139
SWIDTH 500 0
DWIDTH 12 0
BBX 10 12 1 0
BITMAP
0040
01C0
0780
1E00
7800
E000
E000
7800
1E00
0780
01C0
0040
ENDCHAR
STARTCHAR afii10059
ENCODING 140
SWIDTH 625 0
DWIDTH 15 0
BBX 14 18 1 0
BITMAP
C180
C180
C180
C180
C180
C180
C180
C180
FFF8
FFFC
C18C
C18C
C18C
C18C
C18C
C18C
C1FC
C1F8
ENDCHAR
STARTCHAR afii10061
ENCODING 141
SWIDTH 541 0
DWIDTH 13 0
BBX 12 21 1 0
BITMAP
0700
0600
0C00
C030
C060
C0C0
C180
C300
C600
CC00
DC00
F600
E600
C300
C300
C180
C080
C0C0
C060
C060
C030
ENDCHAR
STARTCHAR afii10060
ENCODING 142
SWIDTH 375 0
DWIDTH 9 0
BBX 10 18 0 0
BITMAP
FE00
FE00
3000
3000
3000
3700
3F80
39C0
30C0
30C0
30C0
30C0
30C0
30C0
30C0
30C0
30C0
30C0
ENDCHAR
STARTCHAR afii10145
ENCODING 143
SWIDTH 500 0
DWIDTH 12 0
BBX 11 21 1 -3
BITMAP
C060
C060
C060
C060
C060
C060
C060
C060
C060
C060
C060
C060
C060
C060
C060
C060
FFE0
FFE0
0C00
0C00
0C00
ENDCHAR
STARTCHAR afii10099
ENCODING 144
SWIDTH 416 0
DWIDTH 10 0
BBX 9 21 1 -3
BITMAP
6000
6000
FC00
FC00
6000
6E00
7F00
7380
6180
6180
6180
6180
6180
6180
6180
6180
6180
6300
0300
0600
0C00
ENDCHAR
STARTCHAR quoteleft
ENCODING 145
SWIDTH 166 0
DWIDTH 4 0
BBX 3 7 1 11
BITMAP
C0
C0
C0
C0
E0
E0
E0
ENDCHAR
STARTCHAR quoteright
ENCODING 146
SWIDTH 125 0
DWIDTH 3 0
BBX 3 7 0 11
BITMAP
E0
E0
E0
60
60
60
60
ENDCHAR
STARTCHAR quotedblleft
ENCODING 147
SWIDTH 333 0
DWIDTH 8 0
BBX 7 7 1 11
BITMAP
CC
CC
CC
CC
EE
EE
EE
ENDCHAR
STARTCHAR quotedblright
ENCODING 148
SWIDTH 291 0
DWIDTH 7 0
BBX 7 7 0 11
BITMAP
EE
EE
EE
66
66
66
66
ENDCHAR
STARTCHAR bullet
ENCODING 149
SWIDTH 291 0
DWIDTH 7 0
BBX 6 7 1 2
BITMAP
30
78
FC
FC
FC
78
30
ENDCHAR
STARTCHAR endash
ENCODING 150
SWIDTH 333 0
DWIDTH 8 0
BBX 7 2 1 5
BITMAP
FE
FE
ENDCHAR
STARTCHAR emdash
ENCODING 151
SWIDTH 541 0
DWIDTH 13 0
BBX 12 2 1 5
BITMAP
FFF0
FFF0
ENDCHAR
STARTCHAR sterling
ENCODING 152
SWIDTH 625 0
DWIDTH 15 0
BBX 14 18 1 0
BITMAP
0F80
1FC0
18C0
18C0
18C0
18C0
1800
1800
1800
7F00
7F00
1800
1800
1800
1800
3E04
FFFC
C1F8
ENDCHAR
STARTCHAR periodcentered
ENCODING 153
SWIDTH 208 0
DWIDTH 5 0
BBX 2 3 2 5
BITMAP
C0
C0
C0
ENDCHAR
STARTCHAR afii10106
ENCODING 154
SWIDTH 541 0
DWIDTH 13 0
BBX 12 13 1 0
BITMAP
3F00
3F00
3300
3300
3300
33E0
33F0
3330
3330
3330
3330
F3F0
E3E0
ENDCHAR
STARTCHAR guilsinglright
ENCODING 155
SWIDTH 500 0
DWIDTH 12 0
BBX 10 12 1 0
BITMAP
8000
E000
7800
1E00
0780
01C0
01C0
0780
1E00
7800
E000
8000
ENDCHAR
STARTCHAR afii10107
ENCODING 156
SWIDTH 500 0
DWIDTH 12 0
BBX 11 13 1 0
BITMAP
C600
C600
C600
C600
C600
FFC0
FFE0
C660
C660
C660
C660
C7E0
C7C0
ENDCHAR
STARTCHAR afii10109
ENCODING 157
SWIDTH 416 0
DWIDTH 10 0
BBX 9 16 1 0
BITMAP
0E00
0C00
1800
C180
C300
C600
CC00
D800
FC00
EC00
C600
C600
C300
C300
C180
C180
ENDCHAR
STARTCHAR afii10108
ENCODING 158
SWIDTH 416 0
DWIDTH 10 0
BBX 10 18 0 0
BITMAP
3000
FE00
FE00
3000
3000
3700
3F80
39C0
30C0
30C0
30C0
30C0
30C0
30C0
30C0
30C0
30C0
30C0
ENDCHAR
STARTCHAR afii10193
ENCODING 159
SWIDTH 416 0
DWIDTH 10 0
BBX 9 16 1 -3
BITMAP
C180
C180
C180
C180
C180
C180
C180
C180
C180
C180
C180
FF80
FF80
1C00
1C00
0800
ENDCHAR
STARTCHAR space
ENCODING 160
SWIDTH 208 0
DWIDTH 5 0
BBX 0 0 0 0
BITMAP
ENDCHAR
STARTCHAR afii10196
ENCODING 161
SWIDTH 458 0
DWIDTH 11 0
BBX 11 13 0 0
BITMAP
C000
C0E0
C0E0
6180
6180
6180
3300
3300
3300
1E00
1E00
0C00
0C00
ENDCHAR
STARTCHAR afii10194
ENCODING 162
SWIDTH 500 0
DWIDTH 12 0
BBX 11 16 0 0
BITMAP
3000
3000
3000
FE00
FE00
3000
3000
3000
3FC0
3FE0
3060
3060
3060
3060
3FE0
3FC0
ENDCHAR
STARTCHAR afii10071
ENCODING 163
SWIDTH 500 0
DWIDTH 12 0
BBX 10 16 1 0
BITMAP
6180
6180
0000
1E00
3F80
6180
E0C0
C0C0
FFC0
FFC0
C000
C000
E040
60C0
3F80
1F00
ENDCHAR
STARTCHAR afii10101
ENCODING 164
SWIDTH 458 0
DWIDTH 11 0
BBX 9 13 1 0
BITMAP
3E00
7F80
E180
C000
C000
FC00
FC00
C000
C000
C000
E180
7F80
3E00
ENDCHAR
STARTCHAR afii10102
ENCODING 165
SWIDTH 416 0
DWIDTH 10 0
BBX 8 13 1 0
BITMAP
3C
7E
E3
C3
C0
70
7E
0E
03
C3
C7
7E
3C
ENDCHAR
STARTCHAR afii10103
ENCODING 166
SWIDTH 166 0
DWIDTH 4 0
BBX 2 18 1 0
BITMAP
C0
C0
C0
00
00
C0
C0
C0
C0
C0
C0
C0
C0
C0
C0
C0
C0
C0
ENDCHAR
STARTCHAR afii10104
ENCODING 167
SWIDTH 208 0
DWIDTH 5 0
BBX 5 18 0 0
BITMAP
D8
D8
D8
00
00
60
60
60
60
60
60
60
60
60
60
60
60
60
ENDCHAR
STARTCHAR afii10105
ENCODING 168
SWIDTH 166 0
DWIDTH 4 0
BBX 3 23 0 -5
BITMAP
60
60
60
00
00
60
60
60
60
60
60
60
60
60
60
60
60
60
60
60
60
E0
C0
ENDCHAR
STARTCHAR registered
ENCODING 169
SWIDTH 625 0
DWIDTH 15 0
BBX 14 15 1 0
BITMAP
0FC0
3870
6018
6F98
CCCC
CCCC
CCCC
CF8C
CF0C
CD8C
CCCC
6C58
6018
3870
0FC0
ENDCHAR
STARTCHAR trademark
ENCODING 170
SWIDTH 541 0
DWIDTH 13 0
BBX 12 6 1 12
BITMAP
F630
F770
67F0
66B0
6630
6630
ENDCHAR
STARTCHAR guillemotleft
ENCODING 171
SWIDTH 750 0
DWIDTH 18 0
BBX 16 12 0 0
BITMAP
0041
01C7
079E
1E78
79E0
E380
E380
79E0
1E78
079E
01C7
0041
ENDCHAR
STARTCHAR afii10195
ENCODING 172
SWIDTH 500 0
DWIDTH 12 0
BBX 10 13 1 0
BITMAP
1E00
3F00
6180
E1C0
C0C0
C0C0
FFC0
C0C0
C0C0
E1C0
6180
3F00
1E00
ENDCHAR
STARTCHAR afii10098
ENCODING 173
SWIDTH 416 0
DWIDTH 10 0
BBX 8 15 1 0
BITMAP
03
03
FF
FF
C0
C0
C0
C0
C0
C0
C0
C0
C0
C0
C0
ENDCHAR
STARTCHAR afii10110
ENCODING 174
SWIDTH 416 0
DWIDTH 10 0
BBX 10 20 0 -5
BITMAP
3300
1E00
C0C0
C0C0
6180
6180
6180
3300
3300
3300
1200
1E00
1E00
0E00
0C00
0C00
0C00
1800
7800
7000
ENDCHAR
STARTCHAR acute
ENCODING 175
SWIDTH 250 0
DWIDTH 6 0
BBX 4 3 2 15
BITMAP
70
60
C0
ENDCHAR
STARTCHAR degree
ENCODING 176
SWIDTH 291 0
DWIDTH 7 0
BBX 6 7 0 11
BITMAP
30
78
CC
CC
CC
78
30
ENDCHAR
STARTCHAR afii10148
ENCODING 177
SWIDTH 583 0
DWIDTH 14 0
BBX 14 18 0 0
BITMAP
C000
C03C
C03C
606C
6060
6060
6060
30C0
30C0
30C0
1980
1980
1980
1980
0F00
0F00
0600
0600
ENDCHAR
STARTCHAR afii10146
ENCODING 178
SWIDTH 583 0
DWIDTH 14 0
BBX 13 21 0 0
BITMAP
3000
3000
3000
FE00
FE00
3000
3000
3000
3000
3000
3000
3FE0
3FF0
3078
3018
3018
3018
3018
3038
3FF0
3FE0
ENDCHAR
STARTCHAR afii10023
ENCODING 179
SWIDTH 541 0
DWIDTH 13 0
BBX 11 21 1 0
BITMAP
60C0
60C0
0000
FFE0
FFE0
C000
C000
C000
C000
C000
C000
FFC0
FFC0
C000
C000
C000
C000
C000
C000
FFE0
FFE0
ENDCHAR
STARTCHAR afii10053
ENCODING 180
SWIDTH 625 0
DWIDTH 15 0
BBX 13 18 1 0
BITMAP
07C0
1FF0
3870
3038
7018
6000
E000
C000
FF80
FF80
C000
E000
6000
7018
3038
3870
1FF0
07C0
ENDCHAR
STARTCHAR afii10054
ENCODING 181
SWIDTH 541 0
DWIDTH 13 0
BBX 11 18 1 0
BITMAP
1F00
7FC0
60C0
C060
C060
C000
6000
7C00
1F00
03C0
00C0
0060
C060
C060
C060
60C0
7FC0
1F00
ENDCHAR
STARTCHAR afii10055
ENCODING 182
SWIDTH 166 0
DWIDTH 4 0
BBX 2 18 1 0
BITMAP
C0
C0
C0
C0
C0
C0
C0
C0
C0
C0
C0
C0
C0
C0
C0
C0
C0
C0
ENDCHAR
STARTCHAR afii10056
ENCODING 183
SWIDTH 166 0
DWIDTH 4 0
BBX 4 21 0 0
BITMAP
90
90
90
60
60
60
60
60
60
60
60
60
60
60
60
60
60
60
60
60
60
ENDCHAR
STARTCHAR afii10057
ENCODING 184
SWIDTH 458 0
DWIDTH 11 0
BBX 9 18 1 0
BITMAP
0180
0180
0180
0180
0180
0180
0180
0180
0180
0180
0180
0180
C180
C180
C180
6300
7F00
3C00
ENDCHAR
STARTCHAR afii61352
ENCODING 185
SWIDTH 708 0
DWIDTH 17 0
BBX 16 18 1 0
BITMAP
C037
C035
E035
F037
D030
D837
C837
CC30
C630
C630
C330
C130
C1B0
C0B0
C0F0
C070
C030
C030
ENDCHAR
STARTCHAR cent
ENCODING 186
SWIDTH 458 0
DWIDTH 11 0
BBX 9 15 1 -1
BITMAP
0C00
1E00
3F00
6D80
ED80
CC80
CC00
CC00
CC00
CC80
ED80
6D80
3F00
1E00
0C00
ENDCHAR
STARTCHAR guillemotright
ENCODING 187
SWIDTH 750 0
DWIDTH 18 0
BBX 16 12 0 0
BITMAP
8200
E380
79E0
1E78
079E
01C7
01C7
079E
1E78
79E0
E380
8200
ENDCHAR
STARTCHAR afii10147
ENCODING 188
SWIDTH 666 0
DWIDTH 16 0
BBX 14 18 1 0
BITMAP
0FC0
3FF0
3870
6018
6018
E01C
C00C
C00C
FFFC
FFFC
C00C
C00C
E01C
6018
6018
3870
3FF0
0FC0
ENDCHAR
STARTCHAR afii10050
ENCODING 189
SWIDTH 416 0
DWIDTH 10 0
BBX 8 20 1 0
BITMAP
03
03
FF
FF
C0
C0
C0
C0
C0
C0
C0
C0
C0
C0
C0
C0
C0
C0
C0
C0
ENDCHAR
STARTCHAR afii10062
ENCODING 190
SWIDTH 583 0
DWIDTH 14 0
BBX 14 20 0 0
BITMAP
0840
0CC0
E79C
6018
3030
3030
1860
1860
0CC0
0CC0
0780
0780
0300
0300
0600
0600
0C00
0C00
7800
7000
ENDCHAR
STARTCHAR copyright
ENCODING 191
SWIDTH 625 0
DWIDTH 15 0
BBX 14 15 1 0
BITMAP
0FC0
3870
6018
6398
C6CC
CCCC
CC0C
CC0C
CC0C
CCCC
C6CC
6398
6018
3870
0FC0
ENDCHAR
STARTCHAR afii10096
ENCODING 192
SWIDTH 583 0
DWIDTH 14 0
BBX 12 13 1 0
BITMAP
C7C0
CFE0
DC70
D830
D830
F830
F830
D830
D830
D830
DC70
CFE0
C7C0
ENDCHAR
STARTCHAR afii10065
ENCODING 193
SWIDTH 458 0
DWIDTH 11 0
BBX 10 13 1 0
BITMAP
1E00
3F00
6180
6180
0180
1F80
7D80
E180
C180
C180
C380
7FC0
38C0
ENDCHAR
STARTCHAR afii10066
ENCODING 194
SWIDTH 500 0
DWIDTH 12 0
BBX 10 19 1 0
BITMAP
00C0
07C0
1F00
3800
6000
6000
DF00
FF80
E1C0
C0C0
C0C0
C0C0
C0C0
C0C0
C0C0
C0C0
E1C0
7F80
3F00
ENDCHAR
STARTCHAR afii10088
ENCODING 195
SWIDTH 500 0
DWIDTH 12 0
BBX 10 15 1 -2
BITMAP
C180
C180
C180
C180
C180
C180
C180
C180
C180
C180
C180
FFC0
FFC0
00C0
00C0
ENDCHAR
STARTCHAR afii10069
ENCODING 196
SWIDTH 541 0
DWIDTH 13 0
BBX 12 15 0 -2
BITMAP
1FC0
1FC0
18C0
18C0
18C0
18C0
18C0
18C0
18C0
18C0
30C0
FFF0
FFF0
C030
C030
ENDCHAR
STARTCHAR afii10070
ENCODING 197
SWIDTH 500 0
DWIDTH 12 0
BBX 10 13 1 0
BITMAP
1E00
3F80
6180
E0C0
C0C0
FFC0
FFC0
C000
C000
E040
60C0
3F80
1F00
ENDCHAR
STARTCHAR afii10086
ENCODING 198
SWIDTH 583 0
DWIDTH 14 0
BBX 12 22 1 -5
BITMAP
0600
0600
0600
0600
1F80
3FC0
76E0
E670
C630
C630
C630
C630
C630
E670
76E0
3FC0
0F00
0600
0600
0600
0600
0600
ENDCHAR
STARTCHAR afii10068
ENCODING 199
SWIDTH 416 0
DWIDTH 10 0
BBX 8 13 1 0
BITMAP
FF
FF
C0
C0
C0
C0
C0
C0
C0
C0
C0
C0
C0
ENDCHAR
STARTCHAR afii10087
ENCODING 200
SWIDTH 416 0
DWIDTH 10 0
BBX 10 13 0 0
BITMAP
E1C0
6180
3300
3300
1E00
0C00
0C00
1E00
1E00
3300
6180
6180
C0C0
ENDCHAR
STARTCHAR afii10074
ENCODING 201
SWIDTH 458 0
DWIDTH 11 0
BBX 9 13 1 0
BITMAP
C180
C380
C380
C780
CF80
CD80
DD80
F980
F180
F180
E180
C180
C180
ENDCHAR
STARTCHAR afii10075
ENCODING 202
SWIDTH 458 0
DWIDTH 11 0
BBX 9 18 1 0
BITMAP
2200
3600
3E00
1C00
0000
C180
C380
C380
C780
CF80
CD80
DD80
F980
F180
F180
E180
C180
C180
ENDCHAR
STARTCHAR afii10076
ENCODING 203
SWIDTH 416 0
DWIDTH 10 0
BBX 9 13 1 0
BITMAP
C180
C300
C600
CC00
D800
FC00
EC00
C600
C600
C300
C300
C180
C180
ENDCHAR
STARTCHAR afii10077
ENCODING 204
SWIDTH 500 0
DWIDTH 12 0
BBX 10 13 1 0
BITMAP
3FC0
3FC0
30C0
30C0
30C0
30C0
30C0
30C0
30C0
30C0
30C0
F0C0
E0C0
ENDCHAR
STARTCHAR afii10078
ENCODING 205
SWIDTH 625 0
DWIDTH 15 0
BBX 13 13 1 0
BITMAP
C018
E038
E078
F078
F0F8
D8D8
DD98
CF98
CF18
C718
C218
C018
C018
ENDCHAR
STARTCHAR afii10079
ENCODING 206
SWIDTH 458 0
DWIDTH 11 0
BBX 9 13 1 0
BITMAP
C180
C180
C180
C180
C180
FF80
FF80
C180
C180
C180
C180
C180
C180
ENDCHAR
STARTCHAR afii10080
ENCODING 207
SWIDTH 500 0
DWIDTH 12 0
BBX 10 13 1 0
BITMAP
1E00
3F00
6180
E1C0
C0C0
C0C0
C0C0
C0C0
C0C0
E1C0
6180
3F00
1E00
ENDCHAR
STARTCHAR afii10081
ENCODING 208
SWIDTH 458 0
DWIDTH 11 0
BBX 9 13 1 0
BITMAP
FF80
FF80
C180
C180
C180
C180
C180
C180
C180
C180
C180
C180
C180
ENDCHAR
STARTCHAR afii10097
ENCODING 209
SWIDTH 458 0
DWIDTH 11 0
BBX 9 13 1 0
BITMAP
3F80
7F80
E180
C180
C180
E180
7F80
3F80
1980
3180
3180
6180
6180
ENDCHAR
STARTCHAR afii10082
ENCODING 210
SWIDTH 500 0
DWIDTH 12 0
BBX 10 18 1 -5
BITMAP
DE00
FF00
E380
C1C0
C0C0
C0C0
C0C0
C0C0
C0C0
C1C0
E380
FF00
DE00
C000
C000
C000
C000
C000
ENDCHAR
STARTCHAR afii10083
ENCODING 211
SWIDTH 458 0
DWIDTH 11 0
BBX 9 13 1 0
BITMAP
1E00
3F00
6180
E180
C080
C000
C000
C000
C080
E180
6180
3F00
1E00
ENDCHAR
STARTCHAR afii10084
ENCODING 212
SWIDTH 458 0
DWIDTH 11 0
BBX 9 13 1 0
BITMAP
FF80
FF80
0C00
0C00
0C00
0C00
0C00
0C00
0C00
0C00
0C00
0C00
0C00
ENDCHAR
STARTCHAR afii10085
ENCODING 213
SWIDTH 416 0
DWIDTH 10 0
BBX 10 18 0 -5
BITMAP
C0C0
C0C0
6180
6180
6180
3300
3300
3300
1200
1E00
1E00
0E00
0C00
0C00
0C00
1800
7800
7000
ENDCHAR
STARTCHAR afii10072
ENCODING 214
SWIDTH 666 0
DWIDTH 16 0
BBX 14 13 1 0
BITMAP
6318
6318
3330
3330
3B60
1B60
1FE0
3FF0
3330
7338
6318
C30C
C30C
ENDCHAR
STARTCHAR afii10067
ENCODING 215
SWIDTH 458 0
DWIDTH 11 0
BBX 9 13 1 0
BITMAP
FE00
FF00
C300
C300
C300
FE00
FF00
C380
C180
C180
C180
FF00
FE00
ENDCHAR
STARTCHAR afii10094
ENCODING 216
SWIDTH 416 0
DWIDTH 10 0
BBX 8 13 1 0
BITMAP
C0
C0
C0
C0
C0
FE
FF
C3
C3
C3
C3
FF
FE
ENDCHAR
STARTCHAR afii10093
ENCODING 217
SWIDTH 541 0
DWIDTH 13 0
BBX 11 13 1 0
BITMAP
C060
C060
C060
C060
C060
FE60
FF60
C360
C360
C360
C360
FF60
FE60
ENDCHAR
STARTCHAR afii10073
ENCODING 218
SWIDTH 416 0
DWIDTH 10 0
BBX 8 13 1 0
BITMAP
3C
7E
C7
C3
03
1E
1E
07
03
83
C3
FF
7E
ENDCHAR
STARTCHAR afii10090
ENCODING 219
SWIDTH 583 0
DWIDTH 14 0
BBX 12 13 1 0
BITMAP
C630
C630
C630
C630
C630
C630
C630
C630
C630
C630
C630
FFF0
FFF0
ENDCHAR
STARTCHAR afii10095
ENCODING 220
SWIDTH 458 0
DWIDTH 11 0
BBX 9 13 1 0
BITMAP
3E00
FF00
C380
0180
0180
1F80
1F80
0180
0180
0180
C380
FF00
3E00
ENDCHAR
STARTCHAR afii10091
ENCODING 221
SWIDTH 625 0
DWIDTH 15 0
BBX 14 15 1 -2
BITMAP
C630
C630
C630
C630
C630
C630
C630
C630
C630
C630
C630
FFFC
FFFC
000C
000C
ENDCHAR
STARTCHAR afii10089
ENCODING 222
SWIDTH 458 0
DWIDTH 11 0
BBX 9 13 1 0
BITMAP
C180
C180
C180
C180
C180
E180
7F80
3F80
0180
0180
0180
0180
0180
ENDCHAR
STARTCHAR afii10092
ENCODING 223
SWIDTH 500 0
DWIDTH 12 0
BBX 11 13 0 0
BITMAP
F000
F000
3000
3000
3000
3FC0
3FE0
3060
3060
3060
3060
3FE0
3FC0
ENDCHAR
STARTCHAR afii10048
ENCODING 224
SWIDTH 791 0
DWIDTH 19 0
BBX 17 18 1 0
BITMAP
C1FC00
C3FE00
C70700
C60300
CE0380
CC0180
CC0180
CC0180
FC0180
FC0180
CC0180
CC0180
CC0180
CE0380
C60300
C70700
C3FE00
C1FC00
ENDCHAR
STARTCHAR afii10017
ENCODING 225
SWIDTH 541 0
DWIDTH 13 0
BBX 13 18 0 0
BITMAP
0700
0700
0500
0D80
0D80
0880
18C0
18C0
18C0
3060
3FE0
3FE0
6030
6030
6030
C018
C018
C018
ENDCHAR
STARTCHAR afii10018
ENCODING 226
SWIDTH 541 0
DWIDTH 13 0
BBX 11 18 1 0
BITMAP
FFC0
FFC0
C000
C000
C000
C000
C000
C000
FF80
FFC0
C0C0
C060
C060
C060
C060
C0C0
FFC0
FF00
ENDCHAR
STARTCHAR afii10040
ENCODING 227
SWIDTH 583 0
DWIDTH 14 0
BBX 12 20 1 -2
BITMAP
C060
C060
C060
C060
C060
C060
C060
C060
C060
C060
C060
C060
C060
C060
C060
C060
FFF0
FFF0
0030
0030
ENDCHAR
STARTCHAR afii10021
ENCODING 228
SWIDTH 583 0
DWIDTH 14 0
BBX 13 20 0 -2
BITMAP
1FE0
1FE0
1860
1860
1860
1860
1860
1860
1860
1860
1860
1860
1860
1860
1860
3060
FFF8
FFF8
C018
C018
ENDCHAR
STARTCHAR afii10022
ENCODING 229
SWIDTH 541 0
DWIDTH 13 0
BBX 11 18 1 0
BITMAP
FFE0
FFE0
C000
C000
C000
C000
C000
C000
FFC0
FFC0
C000
C000
C000
C000
C000
C000
FFE0
FFE0
ENDCHAR
STARTCHAR afii10038
ENCODING 230
SWIDTH 750 0
DWIDTH 18 0
BBX 16 18 1 0
BITMAP
0180
0180
0FF0
3FFC
798E
E187
C183
C183
C183
C183
C183
C183
E187
799E
3FFC
0FF0
0180
0180
ENDCHAR
STARTCHAR afii10020
ENCODING 231
SWIDTH 416 0
DWIDTH 10 0
BBX 8 18 1 0
BITMAP
FF
FF
C0
C0
C0
C0
C0
C0
C0
C0
C0
C0
C0
C0
C0
C0
C0
C0
ENDCHAR
STARTCHAR afii10039
ENCODING 232
SWIDTH 500 0
DWIDTH 12 0
BBX 12 18 0 0
BITMAP
C030
6060
6060
30C0
30C0
1980
1980
0F00
0600
0F00
0F00
1980
1980
30C0
30C0
6060
6060
C030
ENDCHAR
STARTCHAR afii10026
ENCODING 233
SWIDTH 625 0
DWIDTH 15 0
BBX 12 18 2 0
BITMAP
C030
C030
C070
C0F0
C1F0
C1B0
C330
C730
C630
CE30
DC30
D830
F830
F030
E030
C030
C030
C030
ENDCHAR
STARTCHAR afii10027
ENCODING 234
SWIDTH 625 0
DWIDTH 15 0
BBX 12 21 2 0
BITMAP
30C0
30C0
1F80
CF30
C030
C070
C0F0
C1F0
C1B0
C330
C730
C630
CE30
DC30
D830
F830
F030
E030
C030
C030
C030
ENDCHAR
STARTCHAR afii10028
ENCODING 235
SWIDTH 541 0
DWIDTH 13 0
BBX 12 18 1 0
BITMAP
C030
C060
C0C0
C180
C300
C600
CC00
DC00
F600
E600
C300
C300
C180
C080
C0C0
C060
C060
C030
ENDCHAR
STARTCHAR afii10029
ENCODING 236
SWIDTH 583 0
DWIDTH 14 0
BBX 12 18 1 0
BITMAP
1FF0
1FF0
1830
1830
1830
1830
1830
1830
1830
1830
1830
1830
1830
1830
1830
3030
F030
E030
ENDCHAR
STARTCHAR afii10030
ENCODING 237
SWIDTH 708 0
DWIDTH 17 0
BBX 15 18 1 0
BITMAP
C006
C006
E00E
E00E
F01E
D836
D836
CC66
CC66
C6C6
C7C6
C386
C106
C006
C006
C006
C006
C006
ENDCHAR
STARTCHAR afii10031
ENCODING 238
SWIDTH 541 0
DWIDTH 13 0
BBX 11 18 1 0
BITMAP
C060
C060
C060
C060
C060
C060
C060
C060
FFE0
FFE0
C060
C060
C060
C060
C060
C060
C060
C060
ENDCHAR
STARTCHAR afii10032
ENCODING 239
SWIDTH 666 0
DWIDTH 16 0
BBX 14 18 1 0
BITMAP
0FC0
3FF0
3870
6018
6018
E01C
C00C
C00C
C00C
C00C
C00C
C00C
E01C
6018
6018
3870
3FF0
0FC0
ENDCHAR
STARTCHAR afii10033
ENCODING 240
SWIDTH 541 0
DWIDTH 13 0
BBX 11 18 1 0
BITMAP
FFE0
FFE0
C060
C060
C060
C060
C060
C060
C060
C060
C060
C060
C060
C060
C060
C060
C060
C060
ENDCHAR
STARTCHAR afii10049
ENCODING 241
SWIDTH 541 0
DWIDTH 13 0
BBX 11 18 1 0
BITMAP
3FE0
7FE0
6060
C060
C060
C060
C060
6060
7FE0
3FE0
0C60
0C60
1860
1860
3060
3060
6060
6060
ENDCHAR
STARTCHAR afii10034
ENCODING 242
SWIDTH 541 0
DWIDTH 13 0
BBX 11 18 1 0
BITMAP
FF00
FFC0
C0C0
C060
C060
C060
C060
C060
C0C0
FFC0
FF00
C000
C000
C000
C000
C000
C000
C000
ENDCHAR
STARTCHAR afii10035
ENCODING 243
SWIDTH 583 0
DWIDTH 14 0
BBX 12 18 1 0
BITMAP
0F80
3FE0
38E0
6030
6030
E000
C000
C000
C000
C000
C000
C000
E030
6030
6030
38E0
3FE0
0F80
ENDCHAR
STARTCHAR afii10036
ENCODING 244
SWIDTH 500 0
DWIDTH 12 0
BBX 10 18 1 0
BITMAP
FFC0
FFC0
0C00
0C00
0C00
0C00
0C00
0C00
0C00
0C00
0C00
0C00
0C00
0C00
0C00
0C00
0C00
0C00
ENDCHAR
STARTCHAR afii10037
ENCODING 245
SWIDTH 583 0
DWIDTH 14 0
BBX 14 18 0 0
BITMAP
E01C
6018
3030
3030
1860
1860
0CC0
0CC0
0780
0780
0300
0300
0600
0600
0C00
0C00
7800
7000
ENDCHAR
STARTCHAR afii10024
ENCODING 246
SWIDTH 833 0
DWIDTH 20 0
BBX 18 18 1 0
BITMAP
60C180
70C380
30C300
18C700
1CC600
0CCC00
0EDC00
06D800
07F800
0FFC00
0CCC00
18C600
18C600
30C300
30C300
60C180
E0C1C0
C0C0C0
ENDCHAR
STARTCHAR afii10019
ENCODING 247
SWIDTH 541 0
DWIDTH 13 0
BBX 11 18 1 0
BITMAP
FE00
FF80
C180
C0C0
C0C0
C0C0
C0C0
C180
FF80
FFC0
C0C0
C060
C060
C060
C060
C0C0
FFC0
FF00
ENDCHAR
STARTCHAR afii10046
ENCODING 248
SWIDTH 500 0
DWIDTH 12 0
BBX 10 18 1 0
BITMAP
C000
C000
C000
C000
C000
C000
C000
C000
FF00
FF80
C1C0
C0C0
C0C0
C0C0
C0C0
C1C0
FF80
FF00
ENDCHAR
STARTCHAR afii10045
ENCODING 249
SWIDTH 666 0
DWIDTH 16 0
BBX 14 18 1 0
BITMAP
C00C
C00C
C00C
C00C
C00C
C00C
C00C
C00C
FF8C
FFCC
C0EC
C06C
C06C
C06C
C06C
C0EC
FFCC
FF8C
ENDCHAR
STARTCHAR afii10025
ENCODING 250
SWIDTH 500 0
DWIDTH 12 0
BBX 10 18 1 0
BITMAP
3F00
7F80
E1C0
C0C0
00C0
00C0
00C0
0180
1F00
1F80
01C0
00C0
00C0
00C0
C0C0
E1C0
7F80
3F00
ENDCHAR
STARTCHAR afii10042
ENCODING 251
SWIDTH 750 0
DWIDTH 18 0
BBX 16 18 1 0
BITMAP
C183
C183
C183
C183
C183
C183
C183
C183
C183
C183
C183
C183
C183
C183
C183
C183
FFFF
FFFF
ENDCHAR
STARTCHAR afii10047
ENCODING 252
SWIDTH 625 0
DWIDTH 15 0
BBX 13 18 1 0
BITMAP
1F00
7FC0
70E0
E060
C070
0030
0038
0018
0FF8
0FF8
0018
0038
0030
C070
E060
70E0
7FC0
1F00
ENDCHAR
STARTCHAR afii10043
ENCODING 253
SWIDTH 833 0
DWIDTH 20 0
BBX 18 20 1 -2
BITMAP
C18300
C18300
C18300
C18300
C18300
C18300
C18300
C18300
C18300
C18300
C18300
C18300
C18300
C18300
C18300
C18300
FFFFC0
FFFFC0
0000C0
0000C0
ENDCHAR
STARTCHAR afii10041
ENCODING 254
SWIDTH 541 0
DWIDTH 13 0
BBX 11 18 1 0
BITMAP
C060
C060
C060
C060
C060
C060
C060
6060
7FE0
3FE0
0060
0060
0060
0060
0060
0060
0060
0060
ENDCHAR
STARTCHAR afii10044
ENCODING 255
SWIDTH 583 0
DWIDTH 14 0
BBX 13 18 0 0
BITMAP
F000
F000
3000
3000
3000
3000
3000
3000
3FE0
3FF0
3038
3018
3018
3018
3018
3038
3FF0
3FE0
ENDCHAR
ENDFONT
